<mxfile host="app.diagrams.net" agent="Mozilla/5.0 (Windows NT 10.0; Win64; x64) AppleWebKit/537.36 (KHTML, like Gecko) Chrome/131.0.0.0 Safari/537.36" version="25.0.3">
  <diagram name="Page-1" id="zHkG0bOet_GoR9z3jJhl">
    <mxGraphModel dx="1290" dy="557" grid="1" gridSize="10" guides="1" tooltips="1" connect="1" arrows="1" fold="1" page="1" pageScale="1" pageWidth="827" pageHeight="1169" math="0" shadow="0">
      <root>
        <mxCell id="0" />
        <mxCell id="1" parent="0" />
        <mxCell id="WswgqkCGEf2As4siVojp-1" value="" style="shape=waypoint;sketch=0;fillStyle=solid;size=6;pointerEvents=1;points=[];fillColor=none;resizable=0;rotatable=0;perimeter=centerPerimeter;snapToPoint=1;strokeWidth=5;" parent="1" vertex="1">
          <mxGeometry x="330" y="30" width="20" height="20" as="geometry" />
        </mxCell>
        <mxCell id="WswgqkCGEf2As4siVojp-2" value="" style="rhombus;whiteSpace=wrap;html=1;" parent="1" vertex="1">
          <mxGeometry x="300" y="130" width="80" height="30" as="geometry" />
        </mxCell>
        <mxCell id="WswgqkCGEf2As4siVojp-3" value="Login" style="rounded=1;whiteSpace=wrap;html=1;" parent="1" vertex="1">
          <mxGeometry x="285" y="80" width="110" height="20" as="geometry" />
        </mxCell>
        <mxCell id="WswgqkCGEf2As4siVojp-4" value="" style="endArrow=classic;html=1;rounded=0;exitX=0.462;exitY=1.107;exitDx=0;exitDy=0;exitPerimeter=0;entryX=0.5;entryY=0;entryDx=0;entryDy=0;" parent="1" source="WswgqkCGEf2As4siVojp-1" target="WswgqkCGEf2As4siVojp-3" edge="1">
          <mxGeometry width="50" height="50" relative="1" as="geometry">
            <mxPoint x="270" y="110" as="sourcePoint" />
            <mxPoint x="320" y="60" as="targetPoint" />
            <Array as="points" />
          </mxGeometry>
        </mxCell>
        <mxCell id="WswgqkCGEf2As4siVojp-5" value="" style="edgeStyle=none;orthogonalLoop=1;jettySize=auto;html=1;rounded=0;exitX=0.5;exitY=1;exitDx=0;exitDy=0;entryX=0.5;entryY=0;entryDx=0;entryDy=0;" parent="1" source="WswgqkCGEf2As4siVojp-3" target="WswgqkCGEf2As4siVojp-2" edge="1">
          <mxGeometry width="100" relative="1" as="geometry">
            <mxPoint x="290" y="110" as="sourcePoint" />
            <mxPoint x="390" y="110" as="targetPoint" />
            <Array as="points" />
          </mxGeometry>
        </mxCell>
        <mxCell id="WswgqkCGEf2As4siVojp-6" value="Alert &#39;Uncessful&#39;" style="rounded=1;whiteSpace=wrap;html=1;" parent="1" vertex="1">
          <mxGeometry x="420" y="135" width="110" height="20" as="geometry" />
        </mxCell>
        <mxCell id="WswgqkCGEf2As4siVojp-7" value="" style="edgeStyle=none;orthogonalLoop=1;jettySize=auto;html=1;rounded=0;exitX=1;exitY=0.5;exitDx=0;exitDy=0;entryX=0;entryY=0.5;entryDx=0;entryDy=0;" parent="1" source="WswgqkCGEf2As4siVojp-2" target="WswgqkCGEf2As4siVojp-6" edge="1">
          <mxGeometry width="100" relative="1" as="geometry">
            <mxPoint x="360" y="150" as="sourcePoint" />
            <mxPoint x="460" y="150" as="targetPoint" />
            <Array as="points" />
          </mxGeometry>
        </mxCell>
        <mxCell id="WswgqkCGEf2As4siVojp-8" value="" style="edgeStyle=none;orthogonalLoop=1;jettySize=auto;html=1;rounded=0;entryX=1;entryY=0.5;entryDx=0;entryDy=0;exitX=0.5;exitY=0;exitDx=0;exitDy=0;" parent="1" source="WswgqkCGEf2As4siVojp-6" target="WswgqkCGEf2As4siVojp-3" edge="1">
          <mxGeometry width="100" relative="1" as="geometry">
            <mxPoint x="440" y="110" as="sourcePoint" />
            <mxPoint x="540" y="110" as="targetPoint" />
            <Array as="points">
              <mxPoint x="475" y="90" />
            </Array>
          </mxGeometry>
        </mxCell>
        <mxCell id="WswgqkCGEf2As4siVojp-9" value="Alert &#39;Successful&#39;" style="rounded=1;whiteSpace=wrap;html=1;" parent="1" vertex="1">
          <mxGeometry x="285" y="190" width="110" height="20" as="geometry" />
        </mxCell>
        <mxCell id="WswgqkCGEf2As4siVojp-10" value="Select Trainer" style="rounded=1;whiteSpace=wrap;html=1;" parent="1" vertex="1">
          <mxGeometry x="285" y="240" width="110" height="20" as="geometry" />
        </mxCell>
        <mxCell id="WswgqkCGEf2As4siVojp-12" value="Set Time" style="rounded=1;whiteSpace=wrap;html=1;" parent="1" vertex="1">
          <mxGeometry x="285" y="350" width="110" height="20" as="geometry" />
        </mxCell>
        <mxCell id="WswgqkCGEf2As4siVojp-13" value="Alert &#39;Please Select Anotherr trainer&#39;" style="rounded=1;whiteSpace=wrap;html=1;" parent="1" vertex="1">
          <mxGeometry x="140" y="345" width="110" height="30" as="geometry" />
        </mxCell>
        <mxCell id="WswgqkCGEf2As4siVojp-15" value="" style="rhombus;whiteSpace=wrap;html=1;" parent="1" vertex="1">
          <mxGeometry x="300" y="290" width="80" height="30" as="geometry" />
        </mxCell>
        <mxCell id="WswgqkCGEf2As4siVojp-16" value="" style="endArrow=classic;html=1;rounded=0;exitX=0.5;exitY=1;exitDx=0;exitDy=0;entryX=0.5;entryY=0;entryDx=0;entryDy=0;" parent="1" source="WswgqkCGEf2As4siVojp-2" target="WswgqkCGEf2As4siVojp-9" edge="1">
          <mxGeometry width="50" height="50" relative="1" as="geometry">
            <mxPoint x="240" y="250" as="sourcePoint" />
            <mxPoint x="290" y="200" as="targetPoint" />
          </mxGeometry>
        </mxCell>
        <mxCell id="WswgqkCGEf2As4siVojp-17" value="" style="endArrow=classic;html=1;rounded=0;exitX=0.5;exitY=1;exitDx=0;exitDy=0;entryX=0.5;entryY=0;entryDx=0;entryDy=0;" parent="1" source="WswgqkCGEf2As4siVojp-9" target="WswgqkCGEf2As4siVojp-10" edge="1">
          <mxGeometry width="50" height="50" relative="1" as="geometry">
            <mxPoint x="190" y="280" as="sourcePoint" />
            <mxPoint x="240" y="230" as="targetPoint" />
          </mxGeometry>
        </mxCell>
        <mxCell id="WswgqkCGEf2As4siVojp-18" value="" style="endArrow=classic;html=1;rounded=0;exitX=0.5;exitY=1;exitDx=0;exitDy=0;entryX=0.5;entryY=0;entryDx=0;entryDy=0;" parent="1" source="WswgqkCGEf2As4siVojp-10" edge="1">
          <mxGeometry width="50" height="50" relative="1" as="geometry">
            <mxPoint x="340" y="300" as="sourcePoint" />
            <mxPoint x="340.0000000000001" y="290" as="targetPoint" />
          </mxGeometry>
        </mxCell>
        <mxCell id="WswgqkCGEf2As4siVojp-20" value="" style="endArrow=classic;html=1;rounded=0;exitX=0.5;exitY=1;exitDx=0;exitDy=0;entryX=0.5;entryY=0;entryDx=0;entryDy=0;" parent="1" source="WswgqkCGEf2As4siVojp-15" target="WswgqkCGEf2As4siVojp-12" edge="1">
          <mxGeometry width="50" height="50" relative="1" as="geometry">
            <mxPoint x="190" y="510" as="sourcePoint" />
            <mxPoint x="240" y="460" as="targetPoint" />
          </mxGeometry>
        </mxCell>
        <mxCell id="WswgqkCGEf2As4siVojp-22" value="" style="endArrow=classic;html=1;rounded=0;entryX=0.455;entryY=0;entryDx=0;entryDy=0;entryPerimeter=0;exitX=0.052;exitY=0.495;exitDx=0;exitDy=0;exitPerimeter=0;" parent="1" source="WswgqkCGEf2As4siVojp-15" target="WswgqkCGEf2As4siVojp-13" edge="1">
          <mxGeometry width="50" height="50" relative="1" as="geometry">
            <mxPoint x="290" y="360" as="sourcePoint" />
            <mxPoint x="310" y="400" as="targetPoint" />
            <Array as="points">
              <mxPoint x="190" y="305" />
            </Array>
          </mxGeometry>
        </mxCell>
        <mxCell id="WswgqkCGEf2As4siVojp-23" value="" style="ellipse;whiteSpace=wrap;html=1;aspect=fixed;" parent="1" vertex="1">
          <mxGeometry x="325" y="750" width="20" height="20" as="geometry" />
        </mxCell>
        <mxCell id="WswgqkCGEf2As4siVojp-24" value="" style="shape=waypoint;sketch=0;fillStyle=solid;size=6;pointerEvents=1;points=[];fillColor=none;resizable=0;rotatable=0;perimeter=centerPerimeter;snapToPoint=1;" parent="1" vertex="1">
          <mxGeometry x="325" y="750" width="20" height="20" as="geometry" />
        </mxCell>
        <mxCell id="WswgqkCGEf2As4siVojp-27" value="" style="endArrow=classic;html=1;rounded=0;exitX=0.5;exitY=1;exitDx=0;exitDy=0;entryX=0.5;entryY=0;entryDx=0;entryDy=0;" parent="1" source="WswgqkCGEf2As4siVojp-64" target="WswgqkCGEf2As4siVojp-23" edge="1">
          <mxGeometry width="50" height="50" relative="1" as="geometry">
            <mxPoint x="335" y="730" as="sourcePoint" />
            <mxPoint x="300" y="730" as="targetPoint" />
          </mxGeometry>
        </mxCell>
        <mxCell id="WswgqkCGEf2As4siVojp-29" value="" style="endArrow=classic;html=1;rounded=0;exitX=0;exitY=0.5;exitDx=0;exitDy=0;entryX=0;entryY=0.5;entryDx=0;entryDy=0;" parent="1" source="WswgqkCGEf2As4siVojp-13" target="WswgqkCGEf2As4siVojp-10" edge="1">
          <mxGeometry width="50" height="50" relative="1" as="geometry">
            <mxPoint x="180" y="410" as="sourcePoint" />
            <mxPoint x="230" y="360" as="targetPoint" />
            <Array as="points">
              <mxPoint x="110" y="360" />
              <mxPoint x="110" y="250" />
            </Array>
          </mxGeometry>
        </mxCell>
        <mxCell id="WswgqkCGEf2As4siVojp-30" value="" style="rhombus;whiteSpace=wrap;html=1;" parent="1" vertex="1">
          <mxGeometry x="300" y="400" width="80" height="30" as="geometry" />
        </mxCell>
        <mxCell id="WswgqkCGEf2As4siVojp-31" value="" style="endArrow=classic;html=1;rounded=0;exitX=0.5;exitY=1;exitDx=0;exitDy=0;entryX=0.5;entryY=0;entryDx=0;entryDy=0;" parent="1" source="WswgqkCGEf2As4siVojp-12" target="WswgqkCGEf2As4siVojp-30" edge="1">
          <mxGeometry width="50" height="50" relative="1" as="geometry">
            <mxPoint x="60" y="570" as="sourcePoint" />
            <mxPoint x="110" y="520" as="targetPoint" />
          </mxGeometry>
        </mxCell>
        <mxCell id="WswgqkCGEf2As4siVojp-33" value="Alert &#39;This Time Trainer not available" style="rounded=1;whiteSpace=wrap;html=1;" parent="1" vertex="1">
          <mxGeometry x="414" y="440" width="110" height="50" as="geometry" />
        </mxCell>
        <mxCell id="WswgqkCGEf2As4siVojp-34" value="" style="endArrow=classic;html=1;rounded=0;exitX=1;exitY=0.5;exitDx=0;exitDy=0;entryX=0.569;entryY=0.022;entryDx=0;entryDy=0;entryPerimeter=0;" parent="1" source="WswgqkCGEf2As4siVojp-30" target="WswgqkCGEf2As4siVojp-33" edge="1">
          <mxGeometry width="50" height="50" relative="1" as="geometry">
            <mxPoint x="350" y="510" as="sourcePoint" />
            <mxPoint x="400" y="460" as="targetPoint" />
            <Array as="points">
              <mxPoint x="477" y="415" />
            </Array>
          </mxGeometry>
        </mxCell>
        <mxCell id="WswgqkCGEf2As4siVojp-35" value="Payment" style="rounded=1;whiteSpace=wrap;html=1;" parent="1" vertex="1">
          <mxGeometry x="285" y="455" width="110" height="20" as="geometry" />
        </mxCell>
        <mxCell id="WswgqkCGEf2As4siVojp-36" value="" style="endArrow=classic;html=1;rounded=0;exitX=0.5;exitY=1;exitDx=0;exitDy=0;entryX=0.5;entryY=0;entryDx=0;entryDy=0;" parent="1" source="WswgqkCGEf2As4siVojp-30" target="WswgqkCGEf2As4siVojp-35" edge="1">
          <mxGeometry width="50" height="50" relative="1" as="geometry">
            <mxPoint x="180" y="630" as="sourcePoint" />
            <mxPoint x="230" y="580" as="targetPoint" />
          </mxGeometry>
        </mxCell>
        <mxCell id="WswgqkCGEf2As4siVojp-44" value="Card" style="rounded=1;whiteSpace=wrap;html=1;" parent="1" vertex="1">
          <mxGeometry x="260" y="550" width="60" height="20" as="geometry" />
        </mxCell>
        <mxCell id="WswgqkCGEf2As4siVojp-45" value="UPI" style="rounded=1;whiteSpace=wrap;html=1;" parent="1" vertex="1">
          <mxGeometry x="354" y="550" width="60" height="20" as="geometry" />
        </mxCell>
        <mxCell id="WswgqkCGEf2As4siVojp-46" value="" style="endArrow=classic;html=1;rounded=0;entryX=0.5;entryY=0;entryDx=0;entryDy=0;" parent="1" source="WswgqkCGEf2As4siVojp-50" target="WswgqkCGEf2As4siVojp-44" edge="1">
          <mxGeometry width="50" height="50" relative="1" as="geometry">
            <mxPoint x="340" y="530" as="sourcePoint" />
            <mxPoint x="220" y="540" as="targetPoint" />
          </mxGeometry>
        </mxCell>
        <mxCell id="WswgqkCGEf2As4siVojp-47" value="" style="endArrow=classic;html=1;rounded=0;entryX=0.5;entryY=0;entryDx=0;entryDy=0;" parent="1" source="WswgqkCGEf2As4siVojp-50" target="WswgqkCGEf2As4siVojp-45" edge="1">
          <mxGeometry width="50" height="50" relative="1" as="geometry">
            <mxPoint x="384" y="520" as="sourcePoint" />
            <mxPoint x="510" y="560" as="targetPoint" />
          </mxGeometry>
        </mxCell>
        <mxCell id="WswgqkCGEf2As4siVojp-48" value="" style="endArrow=classic;html=1;rounded=0;exitX=0.5;exitY=1;exitDx=0;exitDy=0;" parent="1" source="WswgqkCGEf2As4siVojp-44" target="WswgqkCGEf2As4siVojp-53" edge="1">
          <mxGeometry width="50" height="50" relative="1" as="geometry">
            <mxPoint x="150" y="650" as="sourcePoint" />
            <mxPoint x="290" y="600" as="targetPoint" />
          </mxGeometry>
        </mxCell>
        <mxCell id="WswgqkCGEf2As4siVojp-49" value="" style="endArrow=classic;html=1;rounded=0;exitX=0.5;exitY=1;exitDx=0;exitDy=0;" parent="1" source="WswgqkCGEf2As4siVojp-45" target="WswgqkCGEf2As4siVojp-53" edge="1">
          <mxGeometry width="50" height="50" relative="1" as="geometry">
            <mxPoint x="510" y="670" as="sourcePoint" />
            <mxPoint x="384" y="600" as="targetPoint" />
          </mxGeometry>
        </mxCell>
        <mxCell id="WswgqkCGEf2As4siVojp-51" value="" style="endArrow=classic;html=1;rounded=0;exitX=0.5;exitY=1;exitDx=0;exitDy=0;" parent="1" source="WswgqkCGEf2As4siVojp-35" target="WswgqkCGEf2As4siVojp-50" edge="1">
          <mxGeometry width="50" height="50" relative="1" as="geometry">
            <mxPoint x="340" y="475" as="sourcePoint" />
            <mxPoint x="340" y="520" as="targetPoint" />
          </mxGeometry>
        </mxCell>
        <mxCell id="WswgqkCGEf2As4siVojp-50" value="" style="line;strokeWidth=4;html=1;perimeter=backbonePerimeter;points=[];outlineConnect=0;" parent="1" vertex="1">
          <mxGeometry x="260" y="510" width="160" height="10" as="geometry" />
        </mxCell>
        <mxCell id="WswgqkCGEf2As4siVojp-53" value="" style="line;strokeWidth=4;html=1;perimeter=backbonePerimeter;points=[];outlineConnect=0;" parent="1" vertex="1">
          <mxGeometry x="260" y="600" width="160" height="10" as="geometry" />
        </mxCell>
        <mxCell id="WswgqkCGEf2As4siVojp-61" value="" style="rhombus;whiteSpace=wrap;html=1;" parent="1" vertex="1">
          <mxGeometry x="295" y="630" width="80" height="30" as="geometry" />
        </mxCell>
        <mxCell id="WswgqkCGEf2As4siVojp-62" value="Alert &#39;Payment Unsuccessful&#39;" style="rounded=1;whiteSpace=wrap;html=1;" parent="1" vertex="1">
          <mxGeometry x="410" y="680" width="109" height="30" as="geometry" />
        </mxCell>
        <mxCell id="WswgqkCGEf2As4siVojp-63" value="" style="endArrow=classic;html=1;rounded=0;exitX=1;exitY=0.5;exitDx=0;exitDy=0;entryX=0.569;entryY=0.022;entryDx=0;entryDy=0;entryPerimeter=0;" parent="1" source="WswgqkCGEf2As4siVojp-61" target="WswgqkCGEf2As4siVojp-62" edge="1">
          <mxGeometry width="50" height="50" relative="1" as="geometry">
            <mxPoint x="345" y="740" as="sourcePoint" />
            <mxPoint x="395" y="690" as="targetPoint" />
            <Array as="points">
              <mxPoint x="472" y="645" />
            </Array>
          </mxGeometry>
        </mxCell>
        <mxCell id="WswgqkCGEf2As4siVojp-64" value="Alert &#39;Payment Successful&#39;" style="rounded=1;whiteSpace=wrap;html=1;" parent="1" vertex="1">
          <mxGeometry x="280" y="685" width="110" height="35" as="geometry" />
        </mxCell>
        <mxCell id="WswgqkCGEf2As4siVojp-65" value="" style="endArrow=classic;html=1;rounded=0;exitX=0.5;exitY=1;exitDx=0;exitDy=0;entryX=0.5;entryY=0;entryDx=0;entryDy=0;" parent="1" source="WswgqkCGEf2As4siVojp-61" target="WswgqkCGEf2As4siVojp-64" edge="1">
          <mxGeometry width="50" height="50" relative="1" as="geometry">
            <mxPoint x="175" y="860" as="sourcePoint" />
            <mxPoint x="225" y="810" as="targetPoint" />
          </mxGeometry>
        </mxCell>
        <mxCell id="WswgqkCGEf2As4siVojp-66" value="" style="endArrow=classic;html=1;rounded=0;entryX=0.5;entryY=0;entryDx=0;entryDy=0;" parent="1" source="WswgqkCGEf2As4siVojp-53" target="WswgqkCGEf2As4siVojp-61" edge="1">
          <mxGeometry width="50" height="50" relative="1" as="geometry">
            <mxPoint x="310" y="760" as="sourcePoint" />
            <mxPoint x="260" y="660" as="targetPoint" />
          </mxGeometry>
        </mxCell>
        <mxCell id="WswgqkCGEf2As4siVojp-70" value="" style="ellipse;whiteSpace=wrap;html=1;aspect=fixed;" parent="1" vertex="1">
          <mxGeometry x="454.5" y="740" width="20" height="20" as="geometry" />
        </mxCell>
        <mxCell id="WswgqkCGEf2As4siVojp-71" value="" style="shape=waypoint;sketch=0;fillStyle=solid;size=6;pointerEvents=1;points=[];fillColor=none;resizable=0;rotatable=0;perimeter=centerPerimeter;snapToPoint=1;" parent="1" vertex="1">
          <mxGeometry x="454.5" y="740" width="20" height="20" as="geometry" />
        </mxCell>
        <mxCell id="WswgqkCGEf2As4siVojp-72" value="" style="endArrow=classic;html=1;rounded=0;exitX=0.5;exitY=1;exitDx=0;exitDy=0;entryX=0.5;entryY=0;entryDx=0;entryDy=0;" parent="1" source="WswgqkCGEf2As4siVojp-62" target="WswgqkCGEf2As4siVojp-70" edge="1">
          <mxGeometry width="50" height="50" relative="1" as="geometry">
            <mxPoint x="390" y="750" as="sourcePoint" />
            <mxPoint x="400.5" y="830" as="targetPoint" />
          </mxGeometry>
        </mxCell>
        <mxCell id="WswgqkCGEf2As4siVojp-73" value="" style="endArrow=classic;html=1;rounded=0;exitX=1;exitY=0.5;exitDx=0;exitDy=0;entryX=1;entryY=0.5;entryDx=0;entryDy=0;" parent="1" source="WswgqkCGEf2As4siVojp-33" target="WswgqkCGEf2As4siVojp-12" edge="1">
          <mxGeometry width="50" height="50" relative="1" as="geometry">
            <mxPoint x="500" y="450" as="sourcePoint" />
            <mxPoint x="550" y="400" as="targetPoint" />
            <Array as="points">
              <mxPoint x="560" y="465" />
              <mxPoint x="560" y="360" />
            </Array>
          </mxGeometry>
        </mxCell>
        <mxCell id="wHFHik5L9yKE6cFd8equ-2" value="&lt;font style=&quot;font-size: 10px;&quot;&gt;[successfully]&lt;/font&gt;" style="text;strokeColor=none;fillColor=none;align=left;verticalAlign=middle;spacingLeft=4;spacingRight=4;overflow=hidden;points=[[0,0.5],[1,0.5]];portConstraint=eastwest;rotatable=0;whiteSpace=wrap;html=1;" vertex="1" parent="1">
          <mxGeometry x="338" y="155" width="80" height="30" as="geometry" />
        </mxCell>
        <mxCell id="wHFHik5L9yKE6cFd8equ-3" value="&lt;font style=&quot;font-size: 10px;&quot;&gt;[unsuccessfully]&lt;/font&gt;" style="text;strokeColor=none;fillColor=none;align=left;verticalAlign=middle;spacingLeft=4;spacingRight=4;overflow=hidden;points=[[0,0.5],[1,0.5]];portConstraint=eastwest;rotatable=0;whiteSpace=wrap;html=1;" vertex="1" parent="1">
          <mxGeometry x="354" y="110" width="80" height="30" as="geometry" />
        </mxCell>
        <mxCell id="wHFHik5L9yKE6cFd8equ-4" value="&lt;font style=&quot;font-size: 10px;&quot;&gt;[Trainer not available]&lt;/font&gt;" style="text;strokeColor=none;fillColor=none;align=left;verticalAlign=middle;spacingLeft=4;spacingRight=4;overflow=hidden;points=[[0,0.5],[1,0.5]];portConstraint=eastwest;rotatable=0;whiteSpace=wrap;html=1;" vertex="1" parent="1">
          <mxGeometry x="193" y="280" width="110" height="30" as="geometry" />
        </mxCell>
        <mxCell id="wHFHik5L9yKE6cFd8equ-6" value="&lt;font style=&quot;font-size: 10px;&quot;&gt;[Trainer available]&lt;/font&gt;" style="text;strokeColor=none;fillColor=none;align=left;verticalAlign=middle;spacingLeft=4;spacingRight=4;overflow=hidden;points=[[0,0.5],[1,0.5]];portConstraint=eastwest;rotatable=0;whiteSpace=wrap;html=1;" vertex="1" parent="1">
          <mxGeometry x="339" y="315" width="110" height="30" as="geometry" />
        </mxCell>
        <mxCell id="wHFHik5L9yKE6cFd8equ-7" value="&lt;font style=&quot;font-size: 10px;&quot;&gt;[Selected time trainer not available]&lt;/font&gt;" style="text;strokeColor=none;fillColor=none;align=left;verticalAlign=middle;spacingLeft=4;spacingRight=4;overflow=hidden;points=[[0,0.5],[1,0.5]];portConstraint=eastwest;rotatable=0;whiteSpace=wrap;html=1;" vertex="1" parent="1">
          <mxGeometry x="380" y="383" width="110" height="30" as="geometry" />
        </mxCell>
        <mxCell id="wHFHik5L9yKE6cFd8equ-8" value="&lt;font style=&quot;font-size: 10px;&quot;&gt;[Selected time trainer available]&lt;/font&gt;" style="text;strokeColor=none;fillColor=none;align=left;verticalAlign=middle;spacingLeft=4;spacingRight=4;overflow=hidden;points=[[0,0.5],[1,0.5]];portConstraint=eastwest;rotatable=0;whiteSpace=wrap;html=1;" vertex="1" parent="1">
          <mxGeometry x="231" y="421" width="110" height="30" as="geometry" />
        </mxCell>
        <mxCell id="wHFHik5L9yKE6cFd8equ-9" value="&lt;font style=&quot;font-size: 10px;&quot;&gt;[payment fail]&lt;/font&gt;" style="text;strokeColor=none;fillColor=none;align=left;verticalAlign=middle;spacingLeft=4;spacingRight=4;overflow=hidden;points=[[0,0.5],[1,0.5]];portConstraint=eastwest;rotatable=0;whiteSpace=wrap;html=1;" vertex="1" parent="1">
          <mxGeometry x="392" y="619" width="110" height="30" as="geometry" />
        </mxCell>
        <mxCell id="wHFHik5L9yKE6cFd8equ-11" value="&lt;font style=&quot;font-size: 10px;&quot;&gt;[payment successful]&lt;/font&gt;" style="text;strokeColor=none;fillColor=none;align=left;verticalAlign=middle;spacingLeft=4;spacingRight=4;overflow=hidden;points=[[0,0.5],[1,0.5]];portConstraint=eastwest;rotatable=0;whiteSpace=wrap;html=1;" vertex="1" parent="1">
          <mxGeometry x="232" y="652" width="110" height="30" as="geometry" />
        </mxCell>
      </root>
    </mxGraphModel>
  </diagram>
</mxfile>
